<?xml version="1.0" standalone="no"?>
<!DOCTYPE svg PUBLIC "-//W3C//DTD SVG 20010904//EN"
 "http://www.w3.org/TR/2001/REC-SVG-20010904/DTD/svg10.dtd">
<svg version="1.0" xmlns="http://www.w3.org/2000/svg"
 width="478.000000pt" height="478.000000pt" viewBox="0 0 478.000000 478.000000"
 preserveAspectRatio="xMidYMid meet">

<g transform="translate(0.000000,478.000000) scale(0.100000,-0.100000)"
fill="#000000" stroke="none">
<path d="M2315 3940 c-73 -23 -154 -124 -155 -192 0 -21 6 -29 24 -34 34 -8
42 -1 50 46 10 66 89 130 161 130 65 0 150 -67 161 -127 16 -87 -43 -150 -168
-177 -25 -6 -27 -11 -30 -58 l-3 -52 -74 -32 c-80 -35 -157 -69 -269 -120 -41
-19 -75 -34 -77 -34 -4 0 -226 -100 -280 -125 -16 -8 -111 -50 -210 -94 -200
-87 -203 -91 -177 -169 26 -77 -55 -72 1123 -72 l1052 0 34 37 c36 37 53 71
53 102 0 23 -66 64 -206 128 -60 28 -134 62 -164 76 -30 14 -113 51 -183 82
-71 32 -141 63 -155 71 -15 8 -30 14 -34 14 -4 0 -31 11 -60 24 -29 13 -99 43
-155 66 -91 38 -104 41 -122 28 -19 -13 -19 -16 -5 -36 8 -12 20 -22 25 -22 6
0 115 -46 242 -101 624 -272 737 -326 737 -350 0 -10 -12 -27 -26 -38 -27 -21
-30 -21 -1043 -21 -1076 0 -1058 -1 -1050 45 3 13 50 38 159 87 85 38 173 77
195 87 23 11 88 39 145 64 58 25 137 60 175 77 39 18 88 40 110 50 22 10 86
39 143 64 56 25 106 46 111 46 4 0 20 9 35 21 20 16 26 29 26 59 0 37 2 40 41
50 51 14 124 80 140 127 6 19 9 62 7 94 -5 69 -39 120 -107 158 -48 26 -145
37 -196 21z"/>
<path d="M444 2669 c-2 -4 -7 -45 -10 -93 -6 -73 -5 -86 8 -86 11 0 18 14 23
45 11 76 63 114 158 115 l27 0 0 -324 c0 -352 3 -336 -56 -336 -13 0 -24 -4
-24 -10 0 -6 52 -10 135 -10 83 0 135 4 135 10 0 6 -9 10 -21 10 -11 0 -29 5
-40 10 -18 10 -19 25 -19 330 l0 320 45 0 c51 0 103 -18 124 -44 8 -9 19 -40
26 -68 6 -29 17 -54 24 -56 10 -3 11 16 6 89 -4 52 -8 95 -9 96 -4 5 -529 7
-532 2z"/>
<path d="M1100 2630 c-22 -41 20 -84 65 -67 20 8 30 54 15 72 -19 22 -67 19
-80 -5z"/>
<path d="M3820 2631 c-5 -11 -10 -24 -10 -30 0 -18 31 -41 56 -41 30 0 50 41
34 71 -14 26 -66 26 -80 0z"/>
<path d="M1899 2460 c-21 -21 -51 -41 -68 -45 -40 -8 -40 -25 -1 -25 l30 0 0
-162 c0 -168 9 -235 32 -249 45 -29 134 -18 176 21 33 31 26 44 -12 21 -18
-12 -42 -21 -53 -21 -42 0 -48 23 -51 212 l-4 178 39 0 c43 0 83 9 83 19 0 4
-26 6 -57 6 l-58 0 -3 43 c-2 23 -6 42 -10 41 -4 0 -23 -18 -43 -39z"/>
<path d="M1135 2408 c-27 -9 -60 -17 -73 -18 -31 0 -18 -20 13 -20 34 0 36
-16 33 -210 l-3 -165 -32 -3 c-18 -2 -33 -7 -33 -13 0 -5 48 -9 110 -9 67 0
110 4 110 10 0 6 -13 10 -30 10 -16 0 -31 1 -32 3 -1 1 -4 99 -8 217 l-5 215
-50 -17z"/>
<path d="M1545 2423 c-11 -3 -34 -16 -52 -29 -36 -27 -48 -30 -40 -11 9 25 -8
40 -31 28 -11 -6 -43 -16 -71 -22 -28 -6 -51 -15 -51 -21 0 -6 7 -7 16 -4 9 4
25 4 35 1 18 -6 19 -20 19 -191 l0 -184 -30 0 c-16 0 -30 -4 -30 -10 0 -6 42
-10 105 -10 63 0 105 4 105 10 0 6 -13 10 -30 10 l-30 0 0 175 c0 161 2 177
20 195 39 39 109 38 132 -3 8 -15 12 -78 12 -192 l1 -170 -32 -3 c-18 -2 -33
-7 -33 -13 0 -5 46 -9 105 -9 58 0 105 4 105 9 0 5 -12 11 -27 13 l-28 3 -5
180 c-5 186 -10 208 -51 233 -22 14 -87 22 -114 15z"/>
<path d="M2276 2419 c-58 -14 -101 -51 -132 -114 -24 -49 -26 -64 -22 -130 4
-59 11 -83 32 -115 79 -119 241 -133 331 -27 41 47 55 91 55 167 -1 148 -126
252 -264 219z m103 -23 c32 -17 44 -41 61 -121 22 -107 -9 -258 -58 -284 -54
-29 -109 -5 -144 62 -19 35 -23 59 -23 137 0 82 4 102 25 145 35 70 81 90 139
61z"/>
<path d="M3121 2420 c-44 -10 -79 -37 -115 -88 -38 -53 -48 -167 -22 -236 37
-97 139 -151 246 -129 38 7 110 76 110 104 0 25 -17 24 -25 -1 -11 -36 -63
-70 -106 -70 -93 0 -142 65 -143 190 l-1 75 138 3 c136 3 137 3 137 26 0 31
-38 86 -75 107 -37 21 -100 29 -144 19z m100 -39 c19 -20 29 -40 29 -60 l0
-31 -90 0 c-56 0 -90 4 -90 10 0 6 9 29 20 51 33 64 85 76 131 30z"/>
<path d="M3855 2408 c-27 -9 -60 -17 -72 -18 -34 0 -28 -20 7 -20 l29 0 3
-180 c2 -99 2 -185 0 -190 -2 -6 -17 -10 -33 -10 -16 0 -29 -4 -29 -10 0 -6
43 -10 110 -10 62 0 110 4 110 9 0 6 -15 11 -32 13 l-33 3 -5 215 -5 215 -50
-17z"/>
<path d="M4155 2424 c-47 -12 -77 -28 -95 -54 -37 -52 -18 -120 34 -120 45 0
65 59 26 80 -29 16 -25 47 10 65 39 20 63 19 91 -4 19 -15 25 -32 30 -87 6
-74 -1 -94 -35 -94 -35 0 -120 -45 -149 -79 -19 -23 -27 -44 -27 -70 0 -95
109 -133 189 -65 l28 23 11 -23 c16 -35 61 -42 117 -17 28 12 45 26 45 37 0
16 -1 16 -19 0 -11 -10 -30 -16 -43 -14 -23 3 -23 4 -28 178 -3 96 -9 183 -14
193 -16 34 -115 64 -171 51z m97 -324 c-7 -78 -67 -115 -112 -70 -25 25 -26
77 -2 107 9 12 37 31 62 42 l45 20 6 -27 c3 -15 4 -47 1 -72z"/>
<path d="M2717 2409 c-11 -6 -43 -11 -73 -10 -30 0 -54 -4 -54 -9 0 -6 11 -10
24 -10 52 0 56 -16 56 -211 l0 -179 -29 0 c-17 0 -33 -4 -36 -10 -4 -6 33 -10
104 -10 67 0 111 4 111 10 0 6 -14 10 -31 10 l-31 0 4 173 c2 132 7 177 18
195 27 40 83 42 57 2 -23 -39 33 -79 69 -50 20 17 18 74 -4 93 -28 26 -88 22
-117 -8 l-25 -24 0 24 c0 27 -14 31 -43 14z"/>
<path d="M3515 2410 c-11 -5 -44 -9 -72 -9 -29 -1 -53 -5 -53 -11 0 -5 10 -10
23 -10 50 0 52 -6 55 -205 l3 -185 -35 0 c-20 0 -36 -4 -36 -10 0 -6 43 -10
110 -10 67 0 110 4 110 10 0 6 -13 10 -30 10 -17 0 -30 5 -30 13 -4 90 3 301
11 329 15 58 76 84 64 28 -8 -35 8 -60 37 -60 46 0 66 71 30 103 -28 26 -88
22 -117 -8 l-25 -24 0 24 c0 26 -11 30 -45 15z"/>
<path d="M1164 1650 c-34 -13 -72 -66 -79 -110 -10 -60 23 -123 76 -144 47
-19 65 -20 108 -5 50 18 36 27 -32 22 -56 -5 -66 -3 -91 19 -23 19 -29 35 -33
74 -5 59 10 91 55 117 29 17 40 18 78 10 49 -11 70 1 29 17 -31 12 -82 12
-111 0z"/>
<path d="M2858 1643 c0 -10 -1 -29 -2 -43 -1 -23 -4 -25 -47 -22 -82 6 -134
-62 -104 -135 19 -44 55 -60 106 -46 22 6 42 6 45 2 18 -29 24 5 24 126 0 83
-4 135 -10 135 -5 0 -11 -8 -12 -17z m-24 -96 c11 -8 19 -28 20 -50 5 -70 -81
-112 -121 -60 -48 62 39 155 101 110z"/>
<path d="M1553 1573 c-28 -11 -11 -23 25 -17 29 4 43 2 55 -11 25 -24 21 -35
-12 -35 -36 0 -83 -17 -93 -33 -4 -7 -8 -24 -8 -39 0 -46 54 -62 110 -33 26
14 30 13 39 -2 16 -30 20 -11 11 67 -6 58 -13 78 -30 92 -21 17 -70 23 -97 11z
m97 -109 c0 -20 -8 -28 -37 -41 -42 -17 -68 -8 -68 23 0 22 39 44 78 44 22 0
27 -4 27 -26z"/>
<path d="M1910 1485 c0 -108 18 -131 22 -28 3 64 4 68 36 86 27 16 38 17 57 9
22 -10 24 -18 27 -84 3 -85 22 -98 26 -19 4 65 -2 94 -24 115 -18 19 -66 21
-97 5 -16 -9 -22 -9 -25 0 -2 6 -8 11 -13 11 -5 0 -9 -43 -9 -95z"/>
<path d="M2310 1516 c0 -36 4 -76 10 -90 13 -34 53 -43 96 -23 29 15 34 15 34
2 0 -8 5 -15 10 -15 6 0 10 38 10 95 0 57 -4 95 -10 95 -6 0 -10 -27 -10 -60
0 -48 -4 -63 -22 -79 -60 -56 -98 -27 -98 75 0 36 -4 64 -10 64 -6 0 -10 -28
-10 -64z"/>
<path d="M3133 1573 c-28 -11 -11 -23 25 -17 29 4 43 2 55 -11 25 -24 21 -35
-12 -35 -36 0 -83 -17 -93 -33 -4 -7 -8 -24 -8 -39 0 -45 58 -62 110 -34 21
12 26 12 36 -2 20 -27 23 -12 14 68 -6 58 -13 78 -30 92 -21 17 -70 23 -97 11z
m97 -101 c0 -41 -75 -77 -99 -48 -26 31 10 64 72 65 20 1 27 -4 27 -17z"/>
<path d="M3506 1561 c-36 -39 -5 -80 60 -81 30 0 56 -23 49 -42 -9 -22 -52
-31 -92 -19 -25 7 -33 7 -33 -4 0 -27 93 -34 128 -9 45 31 13 94 -48 94 -15 0
-35 7 -46 15 -19 15 -19 15 1 31 14 11 31 14 58 9 29 -4 38 -2 35 7 -3 7 -24
14 -49 16 -35 2 -49 -2 -63 -17z"/>
</g>
</svg>
